<svg width="32" height="32" viewBox="0 0 32 32" xmlns="http://www.w3.org/2000/svg"><g fill="#979797"><path d="M9.5 6h13a.5.5 0 1 1 0 1h-13a.5.5 0 0 1 0-1zm0 1a.5.5 0 0 0 0-1h13a.5.5 0 1 0 0 1h-13zm0 2h9a.5.5 0 1 1 0 1h-9a.5.5 0 0 1 0-1zm0 1a.5.5 0 0 0 0-1h9a.5.5 0 1 0 0 1h-9zm0 2h11a.5.5 0 1 1 0 1h-11a.5.5 0 0 1 0-1zm0 1a.5.5 0 0 0 0-1h11a.5.5 0 1 0 0 1h-11zm0 5h2a.5.5 0 1 1 0 1h-2a.5.5 0 1 1 0-1zm0 1a.5.5 0 1 0 0-1h2a.5.5 0 1 0 0 1h-2zm0-4h5a.5.5 0 1 1 0 1h-5a.5.5 0 1 1 0-1zm0 1a.5.5 0 1 0 0-1h5a.5.5 0 1 0 0 1h-5z"/><path d="M6.5 28.5v-25h19v12.534a.5.5 0 1 0 1 0V3a.5.5 0 0 0-.5-.5H6a.5.5 0 0 0-.5.5v26a.5.5 0 0 0 .5.5h8.03a.5.5 0 1 0 0-1H6.5z"/><path d="M21.64 27.281a4.64 4.64 0 1 0 0-9.281 4.64 4.64 0 0 0 0 9.281zm0-1a3.64 3.64 0 1 1 0-7.281 3.64 3.64 0 0 1 0 7.281z"/><path d="M27.354 27.646l-2.122-2.12a.5.5 0 1 0-.707.706l2.121 2.122a.5.5 0 1 0 .708-.708z"/></g></svg>