<svg width="32" height="32" viewBox="0 0 32 32" xmlns="http://www.w3.org/2000/svg"><g fill="#979797" fill-rule="nonzero"><path d="M16 18.5a2.5 2.5 0 1 0 0-5 2.5 2.5 0 0 0 0 5zm0-1a1.5 1.5 0 1 1 0-3 1.5 1.5 0 0 1 0 3z"/><path d="M16 21.5a5.5 5.5 0 1 0 0-11 5.5 5.5 0 0 0 0 11zm0-1a4.5 4.5 0 1 1 0-9 4.5 4.5 0 0 1 0 9z"/><path d="M16 24.5a8.5 8.5 0 1 0 0-17 8.5 8.5 0 0 0 0 17zm0-1a7.5 7.5 0 1 1 0-15 7.5 7.5 0 0 1 0 15z"/><path d="M16 27.5c6.351 0 11.5-5.149 11.5-11.5S22.351 4.5 16 4.5 4.5 9.649 4.5 16 9.649 27.5 16 27.5zm0-1c-5.799 0-10.5-4.701-10.5-10.5S10.201 5.5 16 5.5 26.5 10.201 26.5 16 21.799 26.5 16 26.5z"/><path d="M15.55 15.743l9.9-9.9.707.707-9.9 9.9h-.707v-.707zm0 0l.293-.293h.414v1l-.707-.707h1v.414l-.293.293-.707-.707z"/><path d="M26 7V4h-1v3z"/><path d="M25 7h3V6h-3z"/></g></svg>