<svg width="32" height="32" viewBox="0 0 32 32" xmlns="http://www.w3.org/2000/svg"><g fill="#979797"><path d="M7 2h18a1 1 0 0 1 1 1v26a1 1 0 0 1-1 1H7a1 1 0 0 1-1-1V3a1 1 0 0 1 1-1zm0 27h18V3H7v26z"/><path d="M10.371 7.235a.5.5 0 1 0-.742.67l1.738 1.924a.5.5 0 0 0 .737.006l3.261-3.494a.5.5 0 1 0-.73-.682l-2.89 3.096-1.374-1.52zm8.994 2.6l3.262-3.494a.5.5 0 1 0-.73-.682l-3.262 3.494a.5.5 0 1 0 .73.682z"/><path d="M21.896 9.835l-3.261-3.494a.5.5 0 1 1 .73-.682l3.262 3.494a.5.5 0 1 1-.73.682zM9.5 13h13a.5.5 0 1 1 0 1h-13a.5.5 0 1 1 0-1zm0 1a.5.5 0 1 0 0-1h13a.5.5 0 1 0 0 1h-13zm0 2h9a.5.5 0 1 1 0 1h-9a.5.5 0 1 1 0-1zm0 1a.5.5 0 1 0 0-1h9a.5.5 0 1 0 0 1h-9zm0 2h11a.5.5 0 1 1 0 1h-11a.5.5 0 1 1 0-1zm0 1a.5.5 0 1 0 0-1h11a.5.5 0 1 0 0 1h-11zm0 2h5a.5.5 0 1 1 0 1h-5a.5.5 0 1 1 0-1zm0 1a.5.5 0 1 0 0-1h5a.5.5 0 1 0 0 1h-5z"/></g></svg>